#!OML:ASF I:\Actors\actors\Patient Classification 1\Patient 1\Session 1\Subject1.ASF
:FULLY-SPECIFIED
:DEGREES
344
root -0.0666806 17.621 7.86462 11.2949 -5.26648 -8.08267
lowerback 1.36982 -1.82357 5.33359
upperback -1.6049 -2.19971 5.15931
thorax -2.42501 -1.14937 2.41377
lowerneck 6.11016 -9.00267 -6.74112
upperneck 6.34085 -12.7269 8.24066
head 2.06749 -6.45118 3.80899
rclavicle -1.49089e-014 -6.20208e-014
rhumerus 8.24077 42.6069 -90.6627
rradius 140.004
rwrist -8.45717
rhand -13.077 -70.721
rfingers 7.12502
rthumb 13.0189 -259.705
lclavicle -1.49089e-014 -6.20208e-014
lhumerus -2.33515 -49.1511 103.978
lradius 131.969
lwrist 42.0594
lhand -50.9915 -9.49894
lfingers 7.12502
lthumb -23.5405 19.0805
rfemur -12.5967 20.9564 22.2993
rtibia 9.2023
rfoot -11.2997 -17.8252
rtoes 0.133179
lfemur -0.303322 -43.8543 -8.51364
ltibia -3.19396
lfoot -32.7092 54.7085
ltoes 22.1362
345
root -0.0679386 17.6189 7.87676 11.3507 -5.59533 -8.11063
lowerback 1.19323 -1.67832 5.67455
upperback -1.53941 -2.02134 4.99749
thorax -2.27618 -1.06464 2.04184
lowerneck 7.10092 -8.6607 -6.90741
upperneck 5.90437 -12.3446 9.22397
head 1.8036 -6.28812 4.25856
rclavicle -1.0635e-014 -2.06736e-014
rhumerus 8.17777 42.644 -89.9411
rradius 139.626
rwrist -1.50437
rhand -15.8519 -71.3832
rfingers 7.12502
rthumb 10.343 -258.891
lclavicle -1.0635e-014 -2.06736e-014
lhumerus -2.23952 -50.2462 103.787
lradius 131.502
lwrist 42.378
lhand -50.7472 -7.51969
lfingers 7.12502
lthumb -23.3061 21.0896
rfemur -12.5737 21.1105 22.3076
rtibia 9.0808
rfoot -11.1825 -17.6486
rtoes -0.0506364
lfemur 0.00715715 -44.2527 -8.73869
ltibia -3.23806
lfoot -33.8944 55.1187
ltoes 22.808
346
root -0.0689865 17.6163 7.88908 11.4019 -5.87622 -8.12495
lowerback 1.27529 -1.73661 5.83528
upperback -1.71545 -2.07473 5.00162
thorax -2.51147 -1.09932 1.96737
lowerneck 5.75057 -9.29639 -6.60074
upperneck 7.18503 -13.1552 8.22639
head 2.44248 -6.64741 3.72771
rclavicle -4.24405e-014 4.65156e-014
rhumerus 7.417 42.5371 -89.9823
rradius 139.485
rwrist 2.49648
rhand -17.9285 -72.2818
rfingers 7.12502
rthumb 8.33931 -257.903
lclavicle -4.24405e-014 4.65156e-014
lhumerus 0.342369 -49.0703 101.254
lradius 130.541
lwrist 46.1495
lhand -50.5646 -6.33045
lfingers 7.12502
lthumb -23.1309 22.3009
rfemur -12.5895 21.2194 22.3058
rtibia 9.05177
rfoot -11.0874 -17.4874
rtoes -0.335322
lfemur 0.253573 -44.4992 -8.93339
ltibia -3.28348
lfoot -34.6974 55.448
ltoes 23.2159
347
root -0.0692848 17.6147 7.90242 11.3873 -6.13236 -8.11052
lowerback 1.3604 -2.01553 5.73155
upperback -1.93849 -2.42165 5.23451
thorax -2.78019 -1.27488 2.29115
lowerneck 7.70376 -8.22766 -7.48778
upperneck 6.67507 -11.919 9.62459
head 1.76347 -6.08093 4.08161
rclavicle -5.48646e-014 1.03368e-014
rhumerus 6.32278 42.8566 -90.3836
rradius 139.672
rwrist 5.66626
rhand -17.7151 -72.8262
rfingers 7.12502
rthumb 8.54526 -257.367
lclavicle -5.48646e-014 1.03368e-014
lhumerus -2.30598 -50.0104 103.582
lradius 130.418
lwrist 44.7128
lhand -50.551 -6.61042
lfingers 7.12502
lthumb -23.1179 22.0226
rfemur -12.5664 21.3037 22.2962
rtibia 9.09931
rfoot -11.0324 -17.3293
rtoes -0.637887
lfemur 0.590385 -44.7731 -9.23509
ltibia -3.33743
lfoot -35.4682 55.8125
ltoes 23.5136
348
root -0.0690953 17.6141 7.91498 11.3472 -6.41765 -8.10556
lowerback 1.3361 -2.14188 5.75704
upperback -1.99081 -2.58672 5.34026
thorax -2.818 -1.35811 2.39468
lowerneck 6.99533 -8.51699 -7.29525
upperneck 7.3247 -12.2192 8.25442
head 2.24096 -6.22965 3.95814
rclavicle 5.36719e-015 7.15625e-015
rhumerus 5.56829 42.6371 -90.6595
rradius 139.581
rwrist 7.12513
rhand -18.8173 -72.9955
rfingers 7.12502
rthumb 7.48149 -257.157
lclavicle 5.36719e-015 7.15625e-015
lhumerus -3.19694 -50.7863 104.439
lradius 130
lwrist 43.0665
lhand -50.5378 -7.07908
lfingers 7.12502
lthumb -23.1052 21.5555
rfemur -12.5623 21.3746 22.2958
rtibia 9.21637
rfoot -11.0297 -17.106
rtoes -0.587757
lfemur 1.03793 -45.2313 -9.61176
ltibia -3.39379
lfoot -36.6363 56.2443
ltoes 24.0028
349
root -0.0686152 17.6138 7.92588 11.3575 -6.77289 -8.07244
lowerback 1.26186 -2.05882 5.93354
upperback -2.00319 -2.47971 5.22612
thorax -2.80166 -1.30931 2.17124
lowerneck 6.79842 -8.68302 -6.88562
upperneck 7.62107 -12.4076 7.91897
head 2.3353 -6.30908 3.74518
rclavicle -4.67144e-015 3.18055e-015
rhumerus 5.00515 41.7289 -90.9666
rradius 139.471
rwrist 8.5115
rhand -19.2496 -72.732
rfingers 7.12502
rthumb 7.06419 -257.406
lclavicle -4.67144e-015 3.18055e-015
lhumerus -3.13834 -51.7343 104.352
lradius 129.651
lwrist 41.7609
lhand -50.5171 -7.68992
lfingers 7.12502
lthumb -23.0854 20.9472
rfemur -12.6674 21.4751 22.2197
rtibia 9.39652
rfoot -11.0828 -16.8244
rtoes -0.244776
lfemur 1.44185 -45.733 -10.007
ltibia -3.42763
lfoot -37.9968 56.7199
ltoes 24.5514
350
root -0.0674011 17.6125 7.93729 11.3531 -7.18321 -8.02309
lowerback 1.18005 -2.04128 6.03138
upperback -2.03881 -2.46043 5.18208
thorax -2.79867 -1.30263 2.06837
lowerneck 6.8113 -8.69426 -6.83126
upperneck 7.9524 -12.4385 7.84859
head 2.43866 -6.32281 3.70455
rclavicle 5.96354e-015 6.44062e-014
rhumerus 4.45358 41.1735 -91.3688
rradius 139.296
rwrist 10.2533
rhand -19.3482 -72.179
rfingers 7.12502
rthumb 6.969 -257.956
lclavicle 5.96354e-015 6.44062e-014
lhumerus -3.13541 -52.4594 104.268
lradius 129.491
lwrist 40.6922
lhand -50.6169 -8.68935
lfingers 7.12502
lthumb -23.1811 19.9357
rfemur -12.7728 21.5048 22.1318
rtibia 9.6071
rfoot -11.1345 -16.4554
rtoes -0.182597
lfemur 1.89322 -46.1126 -10.4632
ltibia -3.48711
lfoot -39.2589 57.1899
ltoes 24.9592
